<svg xmlns="http://www.w3.org/2000/svg" viewBox="0 0 1200 580" role="img" aria-labelledby="t d"><title id="t">Dusty Trail frontier town</title><desc id="d">An illustrated saloon and sheriff's office on a broad dusty street, a wagon, mesas and a radiant western sunset.</desc><defs><linearGradient id="sky" x2="0" y2="1"><stop stop-color="#528ec3"/><stop offset=".55" stop-color="#efa477"/><stop offset="1" stop-color="#e9bd86"/></linearGradient><radialGradient id="sun"><stop stop-color="#fffad8"/><stop offset="1" stop-color="#ffe5a1" stop-opacity=".03"/></radialGradient><filter id="sh"><feDropShadow dx="0" dy="9" stdDeviation="9" flood-opacity=".35"/></filter></defs><rect width="1200" height="580" fill="url(#sky)"/><circle cx="971" cy="115" r="160" fill="url(#sun)"/><circle cx="971" cy="115" r="67" fill="#fff2b4"/><g opacity=".7" fill="#fff4e5"><path d="M82 92c-28-25 6-55 34-43 16-27 53-17 58 10 29-8 53 24 27 37Z"/><path d="M681 83c-27-25 5-52 34-42 16-27 55-14 59 13 29-8 48 25 23 32Z"/></g><path d="M0 375 141 232l113 106 128-162 158 190 127-136 160 133 159-112 214 152V580H0Z" fill="#9d5d56"/><path d="M0 405 171 299l86 91 139-82 100 102 179-96 125 94 145-90 255 93v170H0Z" fill="#b97256"/><path d="M0 451Q273 390 529 444T1200 430V580H0Z" fill="#d69e70"/><path d="M507 580 554 410h194l54 170" fill="#bd8457"/><path d="M540 580 587 425h129l54 155" fill="#ecc48b"/><g filter="url(#sh)"><rect x="52" y="283" width="331" height="235" fill="#c47a55" stroke="#784b39" stroke-width="10"/><rect x="37" y="266" width="363" height="48" fill="#874834" stroke="#ebbe88" stroke-width="7"/><rect x="118" y="207" width="207" height="54" fill="#eed19f" stroke="#7a4c37" stroke-width="8"/><text x="220" y="244" text-anchor="middle" font-family="Georgia,serif" font-size="29" font-weight="bold" fill="#734232">SALOON</text><rect x="162" y="373" width="110" height="144" rx="3" fill="#87543b" stroke="#f0c58d" stroke-width="8"/><path d="M217 373v144" stroke="#f0c58d" stroke-width="6"/><rect x="84" y="335" width="52" height="53" rx="7" fill="#ffdf9b" stroke="#87503d" stroke-width="8"/><rect x="300" y="335" width="52" height="53" rx="7" fill="#ffdf9b" stroke="#87503d" stroke-width="8"/><path d="M57 455h323" stroke="#845140" stroke-width="17"/></g><g filter="url(#sh)"><rect x="845" y="285" width="290" height="232" fill="#efc794" stroke="#88573d" stroke-width="9"/><path d="M825 286h330l-38-69H862Z" fill="#905c47" stroke="#684036" stroke-width="7"/><rect x="896" y="226" width="189" height="42" fill="#ffe0a2" stroke="#80543b" stroke-width="7"/><text x="990" y="254" text-anchor="middle" font-family="Georgia,serif" font-size="24" font-weight="bold" fill="#784636">SHERIFF</text><rect x="952" y="374" width="80" height="142" fill="#a2724e" stroke="#795037" stroke-width="8"/><rect x="869" y="330" width="53" height="52" rx="5" fill="#ffdf9d" stroke="#87503d" stroke-width="8"/><rect x="1062" y="330" width="53" height="52" rx="5" fill="#ffdf9d" stroke="#87503d" stroke-width="8"/></g><g filter="url(#sh)"><path d="M429 500h111l25-71H449Z" fill="#c78e5c" stroke="#7b513b" stroke-width="7"/><circle cx="455" cy="514" r="27" fill="#5d453b" stroke="#e1b883" stroke-width="8"/><circle cx="539" cy="514" r="27" fill="#5d453b" stroke="#e1b883" stroke-width="8"/><path d="M477 431l-18-55h64l36 49" fill="none" stroke="#80523e" stroke-width="10"/><path d="M561 419q28-21 48 8l23 39-25 5-23-33-19 21" fill="#8a5b44"/></g><g fill="#578477"><path d="M28 530v-100m0 40-26-26m26-3 21-25m1111 119V422m0 40-25-28m25-19 22-24" stroke="#4e7b63" stroke-width="13" fill="none" stroke-linecap="round"/></g><g opacity=".38" fill="#f6dba9"><circle cx="39" cy="499" r="2"/><circle cx="128" cy="526" r="3"/><circle cx="217" cy="553" r="4"/><circle cx="306" cy="500" r="5"/><circle cx="395" cy="527" r="2"/><circle cx="484" cy="554" r="3"/><circle cx="573" cy="501" r="4"/><circle cx="662" cy="528" r="5"/><circle cx="751" cy="555" r="2"/><circle cx="840" cy="502" r="3"/><circle cx="929" cy="529" r="4"/><circle cx="1018" cy="556" r="5"/><circle cx="1107" cy="503" r="2"/><circle cx="1196" cy="530" r="3"/><circle cx="85" cy="557" r="4"/><circle cx="174" cy="504" r="5"/><circle cx="263" cy="531" r="2"/><circle cx="352" cy="558" r="3"/><circle cx="441" cy="505" r="4"/><circle cx="530" cy="532" r="5"/><circle cx="619" cy="559" r="2"/><circle cx="708" cy="506" r="3"/><circle cx="797" cy="533" r="4"/><circle cx="886" cy="560" r="5"/></g></svg>